<svg xmlns="http://www.w3.org/2000/svg" viewBox="0 0 50 50">
    <g fill-rule="evenodd">
        <path d="M2.23 25A16.59 16.59 0 010 16.667C0 7.462 7.462 0 16.667 0 19.702 0 22.549.812 25 2.23A16.59 16.59 0 0133.333 0C42.538 0 50 7.462 50 16.667A16.59 16.59 0 0147.77 25 16.59 16.59 0 0150 33.333C50 42.538 42.538 50 33.333 50A16.59 16.59 0 0125 47.77 16.59 16.59 0 0116.667 50C7.462 50 0 42.538 0 33.333 0 30.298.812 27.451 2.23 25zM25 41.667c9.205 0 16.667-7.462 16.667-16.667 0-9.205-7.462-16.667-16.667-16.667-9.205 0-16.667 7.462-16.667 16.667 0 9.205 7.462 16.667 16.667 16.667z"/>
        <path d="M20.242 31.717h-2.369v-10.28l-2.82 1.72L14 21.532 18.118 19h2.124v12.717zM24.37 32c-.846 0-1.504-.7-1.504-1.53 0-.85.658-1.531 1.504-1.531.865 0 1.542.68 1.542 1.53 0 .832-.677 1.531-1.542 1.531zm6.91 0c-1.767 0-3.007-.718-3.985-1.795l1.372-1.285c.696.775 1.504 1.21 2.557 1.21 1.41 0 2.294-.908 2.294-2.552 0-1.757-.865-2.361-2.03-2.361-.583 0-1.053.132-1.636.434H28.14V19h7.333l-.282 1.795h-4.738v3.156a4.282 4.282 0 011.917-.473c2.106 0 3.629 1.512 3.629 4.1C36 30.186 34.139 32 31.28 32z"/>
    </g>
</svg>
