<svg xmlns="http://www.w3.org/2000/svg" viewBox="0 0 333 335">
    <g fill="#FFF" fill-rule="nonzero">
        <path d="M76.514 127.8c3.547 0 6.58.595 9.1 1.785 2.52 1.19 4.468 2.893 5.845 5.11 1.377 2.217 2.065 4.888 2.065 8.015 0 3.127-.688 5.798-2.065 8.015-1.377 2.217-3.325 3.92-5.845 5.11-2.52 1.19-5.553 1.785-9.1 1.785h-9.73V174h-9.66v-46.2h19.39zm-1.47 22.19c2.893 0 5.063-.618 6.51-1.855s2.17-3.045 2.17-5.425c0-2.427-.723-4.247-2.17-5.46s-3.617-1.82-6.51-1.82h-8.26v14.56h8.26zm35.804-26.32v39.55c0 1.633.28 2.777.84 3.43.56.653 1.493.98 2.8.98.793 0 1.446-.058 1.96-.175a33.686 33.686 0 001.96-.525l-.84 6.3c-.794.467-1.785.828-2.975 1.085-1.19.257-2.369.385-3.535.385-3.407 0-5.892-.828-7.455-2.485-1.564-1.657-2.345-4.305-2.345-7.945v-40.6h9.59zm20.418 29.19h15.674c-.197-1.933-.741-3.52-1.631-4.76-1.307-1.82-3.267-2.73-5.88-2.73-1.82 0-3.36.42-4.62 1.26-1.26.84-2.217 2.1-2.87 3.78-.288.74-.512 1.556-.673 2.45zm-.119 6.65c.17 1.205.458 2.278.862 3.22.7 1.633 1.726 2.847 3.08 3.64 1.353.793 2.963 1.19 4.83 1.19 2.006 0 3.64-.385 4.9-1.155 1.26-.77 2.263-1.878 3.01-3.325l7.63 2.94c-1.12 2.707-3.069 4.83-5.845 6.37-2.777 1.54-5.985 2.31-9.625 2.31-3.687 0-6.895-.723-9.625-2.17-2.73-1.447-4.842-3.535-6.335-6.265-1.494-2.73-2.24-5.985-2.24-9.765 0-3.78.746-7.035 2.24-9.765 1.493-2.73 3.57-4.818 6.23-6.265 2.66-1.447 5.74-2.17 9.24-2.17 3.453 0 6.428.7 8.925 2.1 2.496 1.4 4.41 3.337 5.74 5.81 1.33 2.473 1.995 5.273 1.995 8.4 0 .933-.024 1.808-.07 2.625a30.391 30.391 0 01-.21 2.275h-24.732zm53.931 10.153c-.275.4-.59.784-.945 1.152-1.236 1.283-2.765 2.252-4.585 2.905-1.82.653-3.686.98-5.6.98-3.64 0-6.475-.817-8.505-2.45-2.03-1.633-3.045-3.967-3.045-7 0-2.567.829-4.678 2.485-6.335 1.657-1.657 4.072-2.812 7.245-3.465l12.04-2.434v-1.346c0-1.96-.571-3.512-1.715-4.655-1.143-1.143-2.648-1.715-4.515-1.715-1.82 0-3.371.467-4.655 1.4-1.283.933-2.205 2.38-2.765 4.34l-8.19-2.52c.84-3.173 2.614-5.67 5.32-7.49 2.707-1.82 6.277-2.73 10.71-2.73 4.714 0 8.447 1.108 11.2 3.325 2.754 2.217 4.13 5.425 4.13 9.625v14.21c0 1.773.84 2.66 2.52 2.66.794 0 1.54-.117 2.24-.35l-.56 5.95c-1.213.607-2.73.91-4.55.91-2.613-.047-4.713-.723-6.3-2.03a6.033 6.033 0 01-1.96-2.937zm-.91-10.713l-7.35 1.47c-1.726.327-2.963.77-3.71 1.33-.746.56-1.12 1.423-1.12 2.59 0 1.12.42 1.995 1.26 2.625.84.63 1.89.945 3.15.945 1.447 0 2.754-.222 3.92-.665a5.878 5.878 0 002.8-2.17c.7-1.003 1.05-2.322 1.05-3.955v-2.17zm34.256 15.75c-3.547 0-6.779-.63-9.695-1.89-2.917-1.26-5.285-3.033-7.105-5.32l5.53-5.6a12.596 12.596 0 004.585 4.2c1.89 1.027 4.071 1.54 6.545 1.54 1.866 0 3.336-.28 4.41-.84 1.073-.56 1.61-1.4 1.61-2.52 0-.793-.28-1.458-.84-1.995-.56-.537-1.564-.945-3.01-1.225l-6.16-1.26c-3.967-.84-6.825-2.1-8.575-3.78-1.75-1.68-2.625-3.897-2.625-6.65 0-1.96.595-3.78 1.785-5.46 1.19-1.68 2.94-3.033 5.25-4.06 2.31-1.027 5.098-1.54 8.365-1.54 3.5 0 6.545.548 9.135 1.645s4.631 2.718 6.125 4.865l-5.74 5.6a10.783 10.783 0 00-4.025-3.71c-1.657-.887-3.395-1.33-5.215-1.33-1.307 0-2.427.14-3.36.42-.934.28-1.634.677-2.1 1.19-.467.513-.7 1.12-.7 1.82 0 .793.35 1.458 1.05 1.995.7.537 1.866.968 3.5 1.295l7.14 1.47c3.36.7 5.81 1.855 7.35 3.465 1.54 1.61 2.31 3.628 2.31 6.055 0 3.453-1.365 6.253-4.095 8.4-2.73 2.147-6.545 3.22-11.445 3.22zm30.56-21.84h15.673c-.197-1.933-.74-3.52-1.63-4.76-1.307-1.82-3.267-2.73-5.88-2.73-1.82 0-3.36.42-4.62 1.26-1.26.84-2.217 2.1-2.87 3.78-.288.74-.513 1.556-.674 2.45zm-.12 6.65c.172 1.205.459 2.278.862 3.22.7 1.633 1.727 2.847 3.08 3.64 1.354.793 2.964 1.19 4.83 1.19 2.007 0 3.64-.385 4.9-1.155 1.26-.77 2.264-1.878 3.01-3.325l7.63 2.94c-1.12 2.707-3.068 4.83-5.845 6.37-2.776 1.54-5.985 2.31-9.625 2.31-3.686 0-6.895-.723-9.625-2.17-2.73-1.447-4.841-3.535-6.335-6.265-1.493-2.73-2.24-5.985-2.24-9.765 0-3.78.747-7.035 2.24-9.765 1.494-2.73 3.57-4.818 6.23-6.265 2.66-1.447 5.74-2.17 9.24-2.17 3.454 0 6.429.7 8.925 2.1 2.497 1.4 4.41 3.337 5.74 5.81 1.33 2.473 1.995 5.273 1.995 8.4 0 .933-.023 1.808-.07 2.625a30.391 30.391 0 01-.21 2.275h-24.731zM36.217 219l-16.17 16.87-1.89.91-10.5 11.27-.14-10.22L25.296 219h10.92zm-26.04-15.33V254H.586v-50.33h9.59zm11.2 26.46L37.056 254h-10.85l-11.41-18.27 6.58-5.6zm27.157 2.73h15.674c-.197-1.933-.74-3.52-1.63-4.76-1.307-1.82-3.267-2.73-5.88-2.73-1.82 0-3.36.42-4.62 1.26-1.26.84-2.217 2.1-2.87 3.78-.288.74-.513 1.556-.674 2.45zm-.118 6.65c.17 1.205.458 2.278.861 3.22.7 1.633 1.727 2.847 3.08 3.64 1.354.793 2.964 1.19 4.83 1.19 2.007 0 3.64-.385 4.9-1.155 1.26-.77 2.264-1.878 3.01-3.325l7.63 2.94c-1.12 2.707-3.068 4.83-5.845 6.37-2.776 1.54-5.985 2.31-9.625 2.31-3.686 0-6.895-.723-9.625-2.17-2.73-1.447-4.841-3.535-6.335-6.265-1.493-2.73-2.24-5.985-2.24-9.765 0-3.78.747-7.035 2.24-9.765 1.494-2.73 3.57-4.818 6.23-6.265 2.66-1.447 5.74-2.17 9.24-2.17 3.454 0 6.429.7 8.925 2.1 2.497 1.4 4.41 3.337 5.74 5.81 1.33 2.473 1.995 5.273 1.995 8.4 0 .933-.023 1.808-.07 2.625a30.391 30.391 0 01-.21 2.275H48.415zm40.588-6.65h15.674c-.197-1.933-.74-3.52-1.63-4.76-1.308-1.82-3.268-2.73-5.88-2.73-1.82 0-3.36.42-4.62 1.26-1.26.84-2.218 2.1-2.87 3.78-.289.74-.513 1.556-.674 2.45zm-.119 6.65c.171 1.205.459 2.278.862 3.22.7 1.633 1.727 2.847 3.08 3.64 1.353.793 2.963 1.19 4.83 1.19 2.007 0 3.64-.385 4.9-1.155 1.26-.77 2.263-1.878 3.01-3.325l7.63 2.94c-1.12 2.707-3.068 4.83-5.845 6.37-2.777 1.54-5.985 2.31-9.625 2.31-3.687 0-6.895-.723-9.625-2.17-2.73-1.447-4.842-3.535-6.335-6.265-1.493-2.73-2.24-5.985-2.24-9.765 0-3.78.747-7.035 2.24-9.765 1.493-2.73 3.57-4.818 6.23-6.265 2.66-1.447 5.74-2.17 9.24-2.17 3.453 0 6.428.7 8.925 2.1 2.497 1.4 4.41 3.337 5.74 5.81 1.33 2.473 1.995 5.273 1.995 8.4 0 .933-.023 1.808-.07 2.625a30.39 30.39 0 01-.21 2.275H88.884zm42.07-13.653a13.39 13.39 0 011.397-2.447 12.14 12.14 0 014.375-3.745c1.773-.91 3.757-1.365 5.95-1.365 2.847 0 5.39.723 7.63 2.17s4.002 3.512 5.285 6.195c1.283 2.683 1.925 5.938 1.925 9.765 0 3.827-.653 7.105-1.96 9.835-1.307 2.73-3.092 4.818-5.355 6.265-2.263 1.447-4.842 2.17-7.735 2.17-3.08 0-5.635-.863-7.665-2.59a12.954 12.954 0 01-3.255-4.145V268.7h-9.59V219h8.61l.388 6.857zm8.712 21.493c2.567 0 4.585-.922 6.055-2.765 1.47-1.843 2.205-4.538 2.205-8.085 0-3.547-.712-6.242-2.135-8.085-1.423-1.843-3.418-2.765-5.985-2.765-1.633 0-3.068.432-4.305 1.295-1.237.863-2.205 2.1-2.905 3.71-.7 1.61-1.05 3.558-1.05 5.845 0 2.193.327 4.118.98 5.775s1.598 2.917 2.835 3.78c1.237.863 2.672 1.295 4.305 1.295zm79.48-28.35l-14.14 37.17c-1.12 3.173-2.369 5.693-3.746 7.56-1.376 1.867-2.963 3.22-4.76 4.06-1.796.84-3.931 1.26-6.405 1.26-1.82 0-3.488-.222-5.005-.665-1.516-.443-2.835-1.015-3.955-1.715l2.03-6.93c.887.7 1.82 1.202 2.8 1.505.98.303 2.1.455 3.36.455 1.307 0 2.439-.28 3.395-.84.957-.56 1.762-1.68 2.415-3.36l1.19-3.01-3.85-9.1-10.71-26.39h10.64l6.65 21 1.82 7 2.17-7.42 6.37-20.58h9.73zm20.834-.7c3.547 0 6.662.723 9.345 2.17 2.683 1.447 4.783 3.523 6.3 6.23 1.517 2.707 2.275 5.973 2.275 9.8 0 3.78-.758 7.035-2.275 9.765-1.517 2.73-3.617 4.818-6.3 6.265s-5.798 2.17-9.345 2.17c-3.5 0-6.603-.723-9.31-2.17-2.707-1.447-4.818-3.535-6.335-6.265-1.517-2.73-2.275-5.985-2.275-9.765 0-3.827.758-7.093 2.275-9.8 1.517-2.707 3.628-4.783 6.335-6.23s5.81-2.17 9.31-2.17zm0 7.14c-1.773 0-3.278.408-4.515 1.225-1.237.817-2.182 2.042-2.835 3.675s-.98 3.687-.98 6.16c0 2.473.327 4.527.98 6.16s1.598 2.858 2.835 3.675c1.237.817 2.742 1.225 4.515 1.225 1.727 0 3.208-.408 4.445-1.225 1.237-.817 2.182-2.042 2.835-3.675s.98-3.687.98-6.16c0-2.473-.327-4.527-.98-6.16s-1.598-2.858-2.835-3.675c-1.237-.817-2.718-1.225-4.445-1.225zm38.167 29.26c-2.333 0-4.433-.42-6.3-1.26-1.867-.84-3.348-2.182-4.445-4.025-1.097-1.843-1.645-4.235-1.645-7.175V219h9.59v20.93c0 2.707.56 4.585 1.68 5.635 1.12 1.05 2.73 1.575 4.83 1.575.98 0 1.937-.175 2.87-.525a6.71 6.71 0 002.485-1.645c.723-.747 1.295-1.715 1.715-2.905.42-1.19.63-2.602.63-4.235V219h9.59v35h-8.54l-.35-6.09c-1.167 2.333-2.765 4.048-4.795 5.145-2.03 1.097-4.468 1.645-7.315 1.645zm31.09-.7v-35h8.33l.63 6.86c.933-2.427 2.298-4.293 4.095-5.6 1.796-1.307 4.048-1.96 6.755-1.96.793 0 1.516.07 2.17.21.653.14 1.19.327 1.61.56l-1.12 8.05c-.467-.187-1.039-.327-1.715-.42-.677-.093-1.552-.14-2.625-.14-1.4 0-2.754.338-4.06 1.015-1.307.677-2.38 1.703-3.22 3.08-.84 1.377-1.26 3.115-1.26 5.215V254h-9.59zM45.854 305.034V283.67h9.59V334h-8.61l-.395-6.675c-.342.823-.77 1.59-1.285 2.3a11.996 11.996 0 01-4.41 3.745c-1.773.887-3.733 1.33-5.88 1.33-2.893 0-5.472-.723-7.735-2.17s-4.037-3.523-5.32-6.23c-1.283-2.707-1.925-5.95-1.925-9.73 0-3.873.677-7.175 2.03-9.905 1.353-2.73 3.185-4.807 5.495-6.23s4.912-2.135 7.805-2.135c3.08 0 5.623.887 7.63 2.66a11.968 11.968 0 013.01 4.074zm-8.19 22.316c1.68 0 3.127-.432 4.34-1.295s2.158-2.135 2.835-3.815c.677-1.68 1.015-3.687 1.015-6.02 0-2.24-.327-4.142-.98-5.705-.653-1.563-1.587-2.765-2.8-3.605-1.213-.84-2.637-1.26-4.27-1.26-2.613 0-4.655.922-6.125 2.765-1.47 1.843-2.205 4.538-2.205 8.085 0 3.547.723 6.242 2.17 8.085 1.447 1.843 3.453 2.765 6.02 2.765zM75.114 299v35h-9.59v-35h9.59zm-4.76-5.04c-2.007 0-3.5-.432-4.48-1.295-.98-.863-1.47-2.135-1.47-3.815 0-1.727.49-3.022 1.47-3.885s2.473-1.295 4.48-1.295c2.007 0 3.5.432 4.48 1.295.98.863 1.47 2.158 1.47 3.885 0 1.68-.49 2.952-1.47 3.815s-2.473 1.295-4.48 1.295zm28.907 40.74c-3.546 0-6.778-.63-9.695-1.89-2.916-1.26-5.285-3.033-7.105-5.32l5.53-5.6a12.596 12.596 0 004.585 4.2c1.89 1.027 4.072 1.54 6.545 1.54 1.867 0 3.337-.28 4.41-.84 1.074-.56 1.61-1.4 1.61-2.52 0-.793-.28-1.458-.84-1.995-.56-.537-1.563-.945-3.01-1.225l-6.16-1.26c-3.966-.84-6.825-2.1-8.575-3.78-1.75-1.68-2.625-3.897-2.625-6.65 0-1.96.595-3.78 1.785-5.46 1.19-1.68 2.94-3.033 5.25-4.06 2.31-1.027 5.099-1.54 8.365-1.54 3.5 0 6.545.548 9.135 1.645s4.632 2.718 6.125 4.865l-5.74 5.6a10.783 10.783 0 00-4.025-3.71c-1.656-.887-3.395-1.33-5.215-1.33-1.306 0-2.426.14-3.36.42-.933.28-1.633.677-2.1 1.19-.466.513-.7 1.12-.7 1.82 0 .793.35 1.458 1.05 1.995.7.537 1.867.968 3.5 1.295l7.14 1.47c3.36.7 5.81 1.855 7.35 3.465 1.54 1.61 2.31 3.628 2.31 6.055 0 3.453-1.365 6.253-4.095 8.4-2.73 2.147-6.545 3.22-11.445 3.22zm35.573-46.41v34.3c0 1.68.431 2.905 1.295 3.675.863.77 2.041 1.155 3.535 1.155 1.213 0 2.251-.175 3.115-.525a8.34 8.34 0 002.345-1.435l1.54 6.37c-1.12.887-2.52 1.587-4.2 2.1-1.68.513-3.454.77-5.32.77-2.334 0-4.399-.35-6.195-1.05-1.797-.7-3.197-1.82-4.2-3.36-1.004-1.54-1.505-3.593-1.505-6.16v-33.18l9.59-2.66zm11.2 10.71v7.14h-27.23V299h27.23zm27.748 30.663c-.276.4-.591.784-.945 1.152-1.237 1.283-2.765 2.252-4.585 2.905-1.82.653-3.687.98-5.6.98-3.64 0-6.475-.817-8.505-2.45-2.03-1.633-3.045-3.967-3.045-7 0-2.567.828-4.678 2.485-6.335 1.656-1.657 4.071-2.812 7.245-3.465l12.04-2.434v-1.346c0-1.96-.572-3.512-1.715-4.655-1.144-1.143-2.649-1.715-4.515-1.715-1.82 0-3.372.467-4.655 1.4-1.284.933-2.205 2.38-2.765 4.34l-8.19-2.52c.84-3.173 2.613-5.67 5.32-7.49 2.706-1.82 6.276-2.73 10.71-2.73 4.713 0 8.446 1.108 11.2 3.325 2.753 2.217 4.13 5.425 4.13 9.625v14.21c0 1.773.84 2.66 2.52 2.66.793 0 1.54-.117 2.24-.35l-.56 5.95c-1.214.607-2.73.91-4.55.91-2.614-.047-4.714-.723-6.3-2.03a6.033 6.033 0 01-1.96-2.937zm-.91-10.713l-7.35 1.47c-1.727.327-2.964.77-3.71 1.33-.747.56-1.12 1.423-1.12 2.59 0 1.12.42 1.995 1.26 2.625.84.63 1.89.945 3.15.945 1.446 0 2.753-.222 3.92-.665a5.878 5.878 0 002.8-2.17c.7-1.003 1.05-2.322 1.05-3.955v-2.17zm29.211-13.458a12.044 12.044 0 011.684-2.747 11.573 11.573 0 014.445-3.325c1.75-.747 3.675-1.12 5.775-1.12 2.427 0 4.585.467 6.475 1.4 1.89.933 3.383 2.345 4.48 4.235 1.097 1.89 1.645 4.258 1.645 7.105V334h-9.59v-20.23c0-2.987-.583-5.052-1.75-6.195-1.167-1.143-2.683-1.715-4.55-1.715-1.307 0-2.578.315-3.815.945-1.237.63-2.24 1.645-3.01 3.045-.77 1.4-1.155 3.267-1.155 5.6V334h-9.59v-35h8.61l.346 6.492zm50.29-7.192c3.127 0 5.776.455 7.946 1.365 2.17.91 3.92 2.147 5.25 3.71a14.078 14.078 0 012.835 5.215l-8.96 3.22c-.42-2.1-1.202-3.687-2.345-4.76-1.144-1.073-2.672-1.61-4.585-1.61-1.774 0-3.29.408-4.55 1.225-1.26.817-2.217 2.053-2.87 3.71-.654 1.657-.98 3.722-.98 6.195 0 2.473.338 4.527 1.015 6.16.676 1.633 1.656 2.847 2.94 3.64 1.283.793 2.788 1.19 4.515 1.19 1.4 0 2.59-.245 3.57-.735a6.247 6.247 0 002.415-2.135c.63-.933 1.061-2.053 1.295-3.36l8.68 2.8c-.514 2.1-1.47 3.943-2.87 5.53-1.4 1.587-3.197 2.823-5.39 3.71-2.194.887-4.737 1.33-7.63 1.33-3.594 0-6.767-.723-9.52-2.17-2.754-1.447-4.877-3.523-6.37-6.23-1.494-2.707-2.24-5.973-2.24-9.8 0-3.827.746-7.093 2.24-9.8 1.493-2.707 3.593-4.783 6.3-6.23 2.706-1.447 5.81-2.17 9.31-2.17zm31.12 14.56h15.674c-.197-1.933-.74-3.52-1.63-4.76-1.307-1.82-3.267-2.73-5.88-2.73-1.82 0-3.36.42-4.62 1.26-1.26.84-2.217 2.1-2.87 3.78-.288.74-.513 1.556-.674 2.45zm-.118 6.65c.17 1.205.458 2.278.861 3.22.7 1.633 1.727 2.847 3.08 3.64 1.354.793 2.964 1.19 4.83 1.19 2.007 0 3.64-.385 4.9-1.155 1.26-.77 2.264-1.878 3.01-3.325l7.63 2.94c-1.12 2.707-3.068 4.83-5.845 6.37-2.776 1.54-5.985 2.31-9.625 2.31-3.686 0-6.895-.723-9.625-2.17-2.73-1.447-4.841-3.535-6.335-6.265-1.493-2.73-2.24-5.985-2.24-9.765 0-3.78.747-7.035 2.24-9.765 1.494-2.73 3.57-4.818 6.23-6.265 2.66-1.447 5.74-2.17 9.24-2.17 3.454 0 6.429.7 8.925 2.1 2.497 1.4 4.41 3.337 5.74 5.81 1.33 2.473 1.995 5.273 1.995 8.4 0 .933-.023 1.808-.07 2.625a30.39 30.39 0 01-.21 2.275h-24.731zM277.689 92L318 32.233l-17.182-11.59-12.153 18.017C254.635 14.201 222.522 0 164 0 105.398 0 73.277 14.24 39.194 38.762l.14-.1-12.152-18.019L10 32.233 50.311 92l17.182-11.59-11.462-16.995C88.58 40.933 118.714 30.425 164 30.425c45.362 0 75.521 10.543 108.132 33.103l-.163-.112-11.462 16.994L277.689 92z"/>
    </g>
</svg>
