<svg xmlns="http://www.w3.org/2000/svg" viewBox="0 0 477 477">
    <defs>
        <linearGradient id="a" x1="100%" x2="0%" y1="0%" y2="100%">
            <stop offset="0%" stop-color="#3A89D8"/>
            <stop offset="100%" stop-color="#001A3F"/>
        </linearGradient>
    </defs>
    <g fill="none" fill-rule="evenodd">
        <circle cx="158.5" cy="158.5" r="158.5" fill="#0882EC" opacity=".5"/>
        <circle cx="318.5" cy="158.5" r="158.5" fill="#0882EC" opacity=".5"/>
        <circle cx="318.5" cy="318.5" r="158.5" fill="#32C5FF" opacity=".5"/>
        <circle cx="158.5" cy="318.5" r="158.5" fill="#32C5FF" opacity=".5"/>
        <circle cx="238.5" cy="238.5" r="158.5" fill="url(#a)"/>
        <g fill="#FFF">
            <path d="M194.284 272.355h-22.12v-95.669l-26.333 16.004L136 177.566 174.446 154h19.838v118.355zm38.544 2.638c-7.9 0-14.044-6.507-14.044-14.245 0-7.914 6.144-14.245 14.044-14.245 8.075 0 14.395 6.331 14.395 14.245 0 7.738-6.32 14.245-14.395 14.245zm64.526 0c-16.502 0-28.089-6.683-37.218-16.707l12.816-11.958c6.495 7.21 14.044 11.255 23.875 11.255 13.167 0 21.418-8.442 21.418-23.742 0-16.355-8.076-21.982-18.96-21.982-5.442 0-9.831 1.23-15.273 4.044h-15.976V154h68.466l-2.633 16.707h-44.24v29.369c5.97-2.99 12.114-4.397 17.907-4.397 19.662 0 33.882 14.07 33.882 38.162 0 24.27-17.38 41.152-44.064 41.152z"/>
            <path fill-rule="nonzero"
                  d="M137.463 299.81v23.448h204.813V299.81H137.463zm2.954 2.931h4.431V313h2.954V302.74h2.954v5.862h2.954v-5.862h2.954V313h2.954V302.74h2.954v5.862h2.954v-5.862h2.954V313h2.954V302.74h2.954v5.862h2.954v-5.862h4.432v17.586h-41.357v-17.586zm39.387 0h4.431V313h2.954V302.74h2.954v5.862h2.954v-5.862h2.954V313h2.954V302.74h2.954v5.862h2.954v-5.862h2.955V313h2.954V302.74h2.954v5.862h2.954v-5.862h4.43v17.586h-41.356v-17.586zm39.387 0h4.431V313h2.954V302.74h2.954v5.862h2.954v-5.862h2.955V313h2.954V302.74h2.954v5.862h2.954v-5.862h2.954V313h2.954V302.74h2.954v5.862h2.954v-5.862h4.43v17.586h-41.356v-17.586zm39.387 0h4.432V313h2.954V302.74h2.954v5.862h2.954v-5.862h2.954V313h2.954V302.74h2.954v5.862h2.954v-5.862h2.954V313h2.954V302.74h2.954v5.862h2.954v-5.862h4.431v17.586h-41.357v-17.586zm39.388 0h4.43V313h2.955V302.74h2.954v5.862h2.954v-5.862h2.954V313h2.954V302.74h2.954v5.862h2.954v-5.862h2.954V313h2.954V302.74h2.954v5.862h2.954v-5.862h4.431v17.586h-41.356v-17.586z"/>
        </g>
    </g>
</svg>
