<svg xmlns="http://www.w3.org/2000/svg" viewBox="0 0 368 335">
    <g fill="#FFF" fill-rule="nonzero">
        <path d="M296.689 0L337 59.767l-17.182 11.59-12.153-18.017C273.635 77.799 241.522 92 183 92c-58.602 0-90.723-14.24-124.806-38.762l.14.1-12.152 18.019L29 59.767 69.311 0l17.182 11.59-11.462 16.995C107.58 51.067 137.714 61.575 183 61.575c45.362 0 75.521-10.543 108.132-33.103l-.163.112-11.462-16.994L296.689 0zM41.55 127.8v7.77H26.08V174h-9.66v-38.43H.88v-7.77h40.67zm6.1 46.2v-50.33h9.59v21.28c1.12-2.24 2.66-3.908 4.62-5.005s4.177-1.645 6.65-1.645c2.427 0 4.586.467 6.476 1.4 1.89.933 3.383 2.345 4.48 4.235 1.096 1.89 1.645 4.258 1.645 7.105V174h-9.59v-20.16c0-3.033-.584-5.122-1.75-6.265-1.167-1.143-2.66-1.715-4.48-1.715a8.45 8.45 0 00-3.885.945c-1.237.63-2.24 1.657-3.01 3.08-.77 1.423-1.155 3.302-1.155 5.635V174h-9.59zm64.217-4.337c-.275.4-.59.784-.945 1.152-1.236 1.283-2.765 2.252-4.585 2.905-1.82.653-3.686.98-5.6.98-3.64 0-6.475-.817-8.505-2.45-2.03-1.633-3.045-3.967-3.045-7 0-2.567.829-4.678 2.485-6.335 1.657-1.657 4.072-2.812 7.245-3.465l12.04-2.434v-1.346c0-1.96-.571-3.512-1.715-4.655-1.143-1.143-2.648-1.715-4.515-1.715-1.82 0-3.371.467-4.655 1.4-1.283.933-2.205 2.38-2.765 4.34l-8.19-2.52c.84-3.173 2.614-5.67 5.32-7.49 2.707-1.82 6.277-2.73 10.71-2.73 4.714 0 8.447 1.108 11.2 3.325 2.754 2.217 4.13 5.425 4.13 9.625v14.21c0 1.773.84 2.66 2.52 2.66.794 0 1.54-.117 2.24-.35l-.56 5.95c-1.213.607-2.73.91-4.55.91-2.613-.047-4.713-.723-6.3-2.03a6.033 6.033 0 01-1.96-2.937zm-.91-10.713l-7.35 1.47c-1.726.327-2.963.77-3.71 1.33-.746.56-1.12 1.423-1.12 2.59 0 1.12.42 1.995 1.26 2.625.84.63 1.89.945 3.15.945 1.447 0 2.754-.222 3.92-.665a5.878 5.878 0 002.8-2.17c.7-1.003 1.05-2.322 1.05-3.955v-2.17zm29.212-13.458a12.044 12.044 0 011.684-2.747 11.573 11.573 0 014.445-3.325c1.75-.747 3.675-1.12 5.775-1.12 2.426 0 4.585.467 6.475 1.4 1.89.933 3.383 2.345 4.48 4.235 1.096 1.89 1.645 4.258 1.645 7.105V174h-9.59v-20.23c0-2.987-.584-5.052-1.75-6.195-1.167-1.143-2.684-1.715-4.55-1.715-1.307 0-2.579.315-3.815.945-1.237.63-2.24 1.645-3.01 3.045-.77 1.4-1.155 3.267-1.155 5.6V174h-9.59v-35h8.61l.346 6.492zm70.03-6.492l-16.17 16.87-1.89.91-10.5 11.27-.14-10.22L199.28 139h10.92zm-26.04-15.33V174h-9.59v-50.33h9.59zm11.2 26.46L211.04 174h-10.85l-11.41-18.27 6.58-5.6zm34.83 24.57c-3.546 0-6.777-.63-9.694-1.89-2.917-1.26-5.285-3.033-7.105-5.32l5.53-5.6a12.596 12.596 0 004.585 4.2c1.89 1.027 4.071 1.54 6.545 1.54 1.867 0 3.336-.28 4.41-.84 1.073-.56 1.61-1.4 1.61-2.52 0-.793-.28-1.458-.84-1.995-.56-.537-1.563-.945-3.01-1.225l-6.16-1.26c-3.967-.84-6.825-2.1-8.575-3.78-1.75-1.68-2.625-3.897-2.625-6.65 0-1.96.595-3.78 1.785-5.46 1.19-1.68 2.94-3.033 5.25-4.06 2.31-1.027 5.098-1.54 8.365-1.54 3.5 0 6.545.548 9.135 1.645s4.631 2.718 6.125 4.865l-5.74 5.6a10.783 10.783 0 00-4.025-3.71c-1.657-.887-3.395-1.33-5.215-1.33-1.307 0-2.427.14-3.36.42-.934.28-1.633.677-2.1 1.19-.467.513-.7 1.12-.7 1.82 0 .793.35 1.458 1.05 1.995.7.537 1.866.968 3.5 1.295l7.14 1.47c3.36.7 5.81 1.855 7.35 3.465 1.54 1.61 2.31 3.628 2.31 6.055 0 3.453-1.365 6.253-4.095 8.4-2.73 2.147-6.545 3.22-11.445 3.22zm59.403-51.73c1.633 0 3.115.175 4.445.525 1.33.35 2.321.782 2.975 1.295l-1.33 6.37a6.633 6.633 0 00-1.75-.77c-.654-.187-1.424-.28-2.31-.28-1.82 0-3.267.408-4.34 1.225-1.074.817-1.61 2.205-1.61 4.165v4.83l.42 1.89V174h-9.59v-39.2c0-1.96.326-3.687.98-5.18.653-1.493 1.563-2.73 2.73-3.71 1.166-.98 2.555-1.715 4.165-2.205 1.61-.49 3.348-.735 5.215-.735zm7.14 16.03v7.14h-26.32V139h26.32zm21.074-.7c3.547 0 6.662.723 9.345 2.17 2.683 1.447 4.783 3.523 6.3 6.23 1.517 2.707 2.275 5.973 2.275 9.8 0 3.78-.758 7.035-2.275 9.765-1.517 2.73-3.617 4.818-6.3 6.265s-5.798 2.17-9.345 2.17c-3.5 0-6.603-.723-9.31-2.17-2.707-1.447-4.818-3.535-6.335-6.265-1.517-2.73-2.275-5.985-2.275-9.765 0-3.827.758-7.093 2.275-9.8 1.517-2.707 3.628-4.783 6.335-6.23s5.81-2.17 9.31-2.17zm0 7.14c-1.773 0-3.278.408-4.515 1.225-1.237.817-2.182 2.042-2.835 3.675s-.98 3.687-.98 6.16c0 2.473.327 4.527.98 6.16s1.598 2.858 2.835 3.675c1.237.817 2.742 1.225 4.515 1.225 1.727 0 3.208-.408 4.445-1.225 1.237-.817 2.182-2.042 2.835-3.675s.98-3.687.98-6.16c0-2.473-.327-4.527-.98-6.16s-1.598-2.858-2.835-3.675c-1.237-.817-2.718-1.225-4.445-1.225zM343.793 174v-35h8.33l.63 6.86c.933-2.427 2.298-4.293 4.095-5.6 1.796-1.307 4.048-1.96 6.755-1.96.793 0 1.516.07 2.17.21.653.14 1.19.327 1.61.56l-1.12 8.05c-.467-.187-1.039-.327-1.715-.42-.677-.093-1.552-.14-2.625-.14-1.4 0-2.754.338-4.06 1.015-1.307.677-2.38 1.703-3.22 3.08-.84 1.377-1.26 3.115-1.26 5.215V174h-9.59zM90.26 219l-16.17 16.87-1.89.91-10.5 11.27-.14-10.22L79.341 219h10.92zm-26.04-15.33V254h-9.59v-50.33h9.59zm11.2 26.46L91.101 254h-10.85l-11.41-18.27 6.58-5.6zm27.158 2.73h15.674c-.197-1.933-.74-3.52-1.631-4.76-1.307-1.82-3.267-2.73-5.88-2.73-1.82 0-3.36.42-4.62 1.26-1.26.84-2.217 2.1-2.87 3.78-.288.74-.512 1.556-.673 2.45zm-.119 6.65c.171 1.205.458 2.278.862 3.22.7 1.633 1.726 2.847 3.08 3.64 1.353.793 2.963 1.19 4.83 1.19 2.006 0 3.64-.385 4.9-1.155 1.26-.77 2.263-1.878 3.01-3.325l7.63 2.94c-1.12 2.707-3.069 4.83-5.845 6.37-2.777 1.54-5.985 2.31-9.625 2.31-3.687 0-6.895-.723-9.625-2.17-2.73-1.447-4.842-3.535-6.335-6.265-1.494-2.73-2.24-5.985-2.24-9.765 0-3.78.746-7.035 2.24-9.765 1.493-2.73 3.57-4.818 6.23-6.265 2.66-1.447 5.74-2.17 9.24-2.17 3.453 0 6.428.7 8.925 2.1 2.496 1.4 4.41 3.337 5.74 5.81 1.33 2.473 1.995 5.273 1.995 8.4 0 .933-.024 1.808-.07 2.625a30.391 30.391 0 01-.21 2.275H102.46zm40.589-6.65h15.674c-.197-1.933-.741-3.52-1.631-4.76-1.307-1.82-3.267-2.73-5.88-2.73-1.82 0-3.36.42-4.62 1.26-1.26.84-2.217 2.1-2.87 3.78-.288.74-.512 1.556-.673 2.45zm-.119 6.65c.17 1.205.458 2.278.862 3.22.7 1.633 1.726 2.847 3.08 3.64 1.353.793 2.963 1.19 4.83 1.19 2.006 0 3.64-.385 4.9-1.155 1.26-.77 2.263-1.878 3.01-3.325l7.63 2.94c-1.12 2.707-3.069 4.83-5.845 6.37-2.777 1.54-5.985 2.31-9.625 2.31-3.687 0-6.895-.723-9.625-2.17-2.73-1.447-4.842-3.535-6.335-6.265-1.494-2.73-2.24-5.985-2.24-9.765 0-3.78.746-7.035 2.24-9.765 1.493-2.73 3.57-4.818 6.23-6.265 2.66-1.447 5.74-2.17 9.24-2.17 3.453 0 6.428.7 8.925 2.1 2.496 1.4 4.41 3.337 5.74 5.81 1.33 2.473 1.995 5.273 1.995 8.4 0 .933-.024 1.808-.07 2.625a30.391 30.391 0 01-.21 2.275H142.93zM185 225.857a13.39 13.39 0 011.396-2.447 12.14 12.14 0 014.375-3.745c1.774-.91 3.757-1.365 5.95-1.365 2.847 0 5.39.723 7.63 2.17s4.002 3.512 5.285 6.195c1.284 2.683 1.925 5.938 1.925 9.765 0 3.827-.653 7.105-1.96 9.835-1.306 2.73-3.091 4.818-5.355 6.265-2.263 1.447-4.841 2.17-7.735 2.17-3.08 0-5.635-.863-7.665-2.59a12.954 12.954 0 01-3.255-4.145V268.7h-9.59V219h8.61l.389 6.857zm8.711 21.493c2.567 0 4.585-.922 6.055-2.765 1.47-1.843 2.205-4.538 2.205-8.085 0-3.547-.711-6.242-2.135-8.085-1.423-1.843-3.418-2.765-5.985-2.765-1.633 0-3.068.432-4.305 1.295-1.236.863-2.205 2.1-2.905 3.71-.7 1.61-1.05 3.558-1.05 5.845 0 2.193.327 4.118.98 5.775.654 1.657 1.599 2.917 2.835 3.78 1.237.863 2.672 1.295 4.305 1.295zm35.77-28.35v35h-9.59v-35h9.59zm-4.76-5.04c-2.006 0-3.5-.432-4.48-1.295-.98-.863-1.47-2.135-1.47-3.815 0-1.727.49-3.022 1.47-3.885s2.474-1.295 4.48-1.295c2.007 0 3.5.432 4.48 1.295.98.863 1.47 2.158 1.47 3.885 0 1.68-.49 2.952-1.47 3.815s-2.473 1.295-4.48 1.295zm23.864 11.532a12.044 12.044 0 011.684-2.747 11.573 11.573 0 014.445-3.325c1.75-.747 3.675-1.12 5.775-1.12 2.426 0 4.585.467 6.475 1.4 1.89.933 3.383 2.345 4.48 4.235 1.096 1.89 1.645 4.258 1.645 7.105V254h-9.59v-20.23c0-2.987-.584-5.052-1.75-6.195-1.167-1.143-2.684-1.715-4.55-1.715-1.307 0-2.579.315-3.815.945-1.237.63-2.24 1.645-3.01 3.045-.77 1.4-1.155 3.267-1.155 5.6V254h-9.59v-35h8.61l.346 6.492zm66.67-14.822l1.12 6.86c-1.726-.187-3.161-.082-4.305.315-1.143.397-1.995 1.038-2.555 1.925s-.84 1.913-.84 3.08l-3.92-1.4c-.046-1.54.152-2.975.595-4.305a9.72 9.72 0 012.03-3.5c.91-1.003 2.03-1.773 3.36-2.31 1.33-.537 2.835-.758 4.515-.665zm-29.087 42.635c-1.092-.426-2.002-.977-2.728-1.65-1.283-1.19-1.925-2.835-1.925-4.935 0-2.147.829-3.908 2.485-5.285 1.657-1.377 3.909-2.182 6.755-2.415l3.22 1.96c-2.006.14-3.418.548-4.235 1.225-.816.677-1.225 1.435-1.225 2.275 0 .98.385 1.715 1.155 2.205s1.879.735 3.325.735h10.78c3.78 0 6.697.817 8.75 2.45 2.054 1.633 3.08 3.92 3.08 6.86 0 2.66-.77 4.912-2.31 6.755s-3.698 3.232-6.475 4.165c-2.776.933-5.985 1.4-9.625 1.4-6.02 0-10.418-.84-13.195-2.52-2.776-1.68-4.165-3.873-4.165-6.58 0-1.913.759-3.535 2.275-4.865.958-.84 2.31-1.433 4.058-1.78zm11.097 9.165c2.427 0 4.422-.21 5.985-.63 1.564-.42 2.73-.957 3.5-1.61.77-.653 1.155-1.377 1.155-2.17 0-.887-.35-1.598-1.05-2.135-.7-.537-1.96-.805-3.78-.805h-11.83c-1.12 0-2.041.28-2.765.84-.723.56-1.085 1.33-1.085 2.31 0 1.307.875 2.333 2.625 3.08 1.75.747 4.165 1.12 7.245 1.12zm.07-44.17c3.267 0 6.102.478 8.505 1.435 2.404.957 4.247 2.322 5.53 4.095 1.284 1.773 1.925 3.897 1.925 6.37 0 2.427-.641 4.527-1.925 6.3-1.283 1.773-3.126 3.138-5.53 4.095-2.403.957-5.238 1.435-8.505 1.435-5.18 0-9.146-1.062-11.9-3.185-2.753-2.123-4.13-5.005-4.13-8.645 0-2.473.654-4.597 1.96-6.37 1.307-1.773 3.15-3.138 5.53-4.095 2.38-.957 5.227-1.435 8.54-1.435zm0 6.02c-1.866 0-3.406.513-4.62 1.54-1.213 1.027-1.82 2.45-1.82 4.27 0 1.82.607 3.255 1.82 4.305 1.214 1.05 2.754 1.575 4.62 1.575 1.867 0 3.395-.525 4.585-1.575 1.19-1.05 1.785-2.485 1.785-4.305 0-1.82-.595-3.243-1.785-4.27-1.19-1.027-2.718-1.54-4.585-1.54zM64.854 305.034V283.67h9.59V334h-8.61l-.395-6.675c-.342.823-.77 1.59-1.285 2.3a11.996 11.996 0 01-4.41 3.745c-1.773.887-3.733 1.33-5.88 1.33-2.893 0-5.472-.723-7.735-2.17s-4.037-3.523-5.32-6.23c-1.283-2.707-1.925-5.95-1.925-9.73 0-3.873.677-7.175 2.03-9.905 1.353-2.73 3.185-4.807 5.495-6.23s4.912-2.135 7.805-2.135c3.08 0 5.623.887 7.63 2.66a11.968 11.968 0 013.01 4.074zm-8.19 22.316c1.68 0 3.127-.432 4.34-1.295s2.158-2.135 2.835-3.815c.677-1.68 1.015-3.687 1.015-6.02 0-2.24-.327-4.142-.98-5.705-.653-1.563-1.587-2.765-2.8-3.605-1.213-.84-2.637-1.26-4.27-1.26-2.613 0-4.655.922-6.125 2.765-1.47 1.843-2.205 4.538-2.205 8.085 0 3.547.723 6.242 2.17 8.085 1.447 1.843 3.453 2.765 6.02 2.765zM94.114 299v35h-9.59v-35h9.59zm-4.76-5.04c-2.007 0-3.5-.432-4.48-1.295-.98-.863-1.47-2.135-1.47-3.815 0-1.727.49-3.022 1.47-3.885s2.473-1.295 4.48-1.295c2.007 0 3.5.432 4.48 1.295.98.863 1.47 2.158 1.47 3.885 0 1.68-.49 2.952-1.47 3.815s-2.473 1.295-4.48 1.295zm28.907 40.74c-3.546 0-6.778-.63-9.695-1.89-2.916-1.26-5.285-3.033-7.105-5.32l5.53-5.6a12.596 12.596 0 004.585 4.2c1.89 1.027 4.072 1.54 6.545 1.54 1.867 0 3.337-.28 4.41-.84 1.074-.56 1.61-1.4 1.61-2.52 0-.793-.28-1.458-.84-1.995-.56-.537-1.563-.945-3.01-1.225l-6.16-1.26c-3.966-.84-6.825-2.1-8.575-3.78-1.75-1.68-2.625-3.897-2.625-6.65 0-1.96.595-3.78 1.785-5.46 1.19-1.68 2.94-3.033 5.25-4.06 2.31-1.027 5.099-1.54 8.365-1.54 3.5 0 6.545.548 9.135 1.645s4.632 2.718 6.125 4.865l-5.74 5.6a10.783 10.783 0 00-4.025-3.71c-1.656-.887-3.395-1.33-5.215-1.33-1.306 0-2.426.14-3.36.42-.933.28-1.633.677-2.1 1.19-.466.513-.7 1.12-.7 1.82 0 .793.35 1.458 1.05 1.995.7.537 1.867.968 3.5 1.295l7.14 1.47c3.36.7 5.81 1.855 7.35 3.465 1.54 1.61 2.31 3.628 2.31 6.055 0 3.453-1.365 6.253-4.095 8.4-2.73 2.147-6.545 3.22-11.445 3.22zm35.573-46.41v34.3c0 1.68.431 2.905 1.295 3.675.863.77 2.041 1.155 3.535 1.155 1.213 0 2.251-.175 3.115-.525a8.34 8.34 0 002.345-1.435l1.54 6.37c-1.12.887-2.52 1.587-4.2 2.1-1.68.513-3.454.77-5.32.77-2.334 0-4.399-.35-6.195-1.05-1.797-.7-3.197-1.82-4.2-3.36-1.004-1.54-1.505-3.593-1.505-6.16v-33.18l9.59-2.66zm11.2 10.71v7.14h-27.23V299h27.23zm27.748 30.663c-.276.4-.591.784-.945 1.152-1.237 1.283-2.765 2.252-4.585 2.905-1.82.653-3.687.98-5.6.98-3.64 0-6.475-.817-8.505-2.45-2.03-1.633-3.045-3.967-3.045-7 0-2.567.828-4.678 2.485-6.335 1.656-1.657 4.071-2.812 7.245-3.465l12.04-2.434v-1.346c0-1.96-.572-3.512-1.715-4.655-1.144-1.143-2.649-1.715-4.515-1.715-1.82 0-3.372.467-4.655 1.4-1.284.933-2.205 2.38-2.765 4.34l-8.19-2.52c.84-3.173 2.613-5.67 5.32-7.49 2.706-1.82 6.276-2.73 10.71-2.73 4.713 0 8.446 1.108 11.2 3.325 2.753 2.217 4.13 5.425 4.13 9.625v14.21c0 1.773.84 2.66 2.52 2.66.793 0 1.54-.117 2.24-.35l-.56 5.95c-1.214.607-2.73.91-4.55.91-2.614-.047-4.714-.723-6.3-2.03a6.033 6.033 0 01-1.96-2.937zm-.91-10.713l-7.35 1.47c-1.727.327-2.964.77-3.71 1.33-.747.56-1.12 1.423-1.12 2.59 0 1.12.42 1.995 1.26 2.625.84.63 1.89.945 3.15.945 1.446 0 2.753-.222 3.92-.665a5.878 5.878 0 002.8-2.17c.7-1.003 1.05-2.322 1.05-3.955v-2.17zm29.211-13.458a12.044 12.044 0 011.684-2.747 11.573 11.573 0 014.445-3.325c1.75-.747 3.675-1.12 5.775-1.12 2.427 0 4.585.467 6.475 1.4 1.89.933 3.383 2.345 4.48 4.235 1.097 1.89 1.645 4.258 1.645 7.105V334h-9.59v-20.23c0-2.987-.583-5.052-1.75-6.195-1.167-1.143-2.683-1.715-4.55-1.715-1.307 0-2.578.315-3.815.945-1.237.63-2.24 1.645-3.01 3.045-.77 1.4-1.155 3.267-1.155 5.6V334h-9.59v-35h8.61l.346 6.492zm50.29-7.192c3.127 0 5.776.455 7.946 1.365 2.17.91 3.92 2.147 5.25 3.71a14.078 14.078 0 012.835 5.215l-8.96 3.22c-.42-2.1-1.202-3.687-2.345-4.76-1.144-1.073-2.672-1.61-4.585-1.61-1.774 0-3.29.408-4.55 1.225-1.26.817-2.217 2.053-2.87 3.71-.654 1.657-.98 3.722-.98 6.195 0 2.473.338 4.527 1.015 6.16.676 1.633 1.656 2.847 2.94 3.64 1.283.793 2.788 1.19 4.515 1.19 1.4 0 2.59-.245 3.57-.735a6.247 6.247 0 002.415-2.135c.63-.933 1.061-2.053 1.295-3.36l8.68 2.8c-.514 2.1-1.47 3.943-2.87 5.53-1.4 1.587-3.197 2.823-5.39 3.71-2.194.887-4.737 1.33-7.63 1.33-3.594 0-6.767-.723-9.52-2.17-2.754-1.447-4.877-3.523-6.37-6.23-1.494-2.707-2.24-5.973-2.24-9.8 0-3.827.746-7.093 2.24-9.8 1.493-2.707 3.593-4.783 6.3-6.23 2.706-1.447 5.81-2.17 9.31-2.17zm31.12 14.56h15.674c-.197-1.933-.74-3.52-1.63-4.76-1.307-1.82-3.267-2.73-5.88-2.73-1.82 0-3.36.42-4.62 1.26-1.26.84-2.217 2.1-2.87 3.78-.288.74-.513 1.556-.674 2.45zm-.118 6.65c.17 1.205.458 2.278.861 3.22.7 1.633 1.727 2.847 3.08 3.64 1.354.793 2.964 1.19 4.83 1.19 2.007 0 3.64-.385 4.9-1.155 1.26-.77 2.264-1.878 3.01-3.325l7.63 2.94c-1.12 2.707-3.068 4.83-5.845 6.37-2.776 1.54-5.985 2.31-9.625 2.31-3.686 0-6.895-.723-9.625-2.17-2.73-1.447-4.841-3.535-6.335-6.265-1.493-2.73-2.24-5.985-2.24-9.765 0-3.78.747-7.035 2.24-9.765 1.494-2.73 3.57-4.818 6.23-6.265 2.66-1.447 5.74-2.17 9.24-2.17 3.454 0 6.429.7 8.925 2.1 2.497 1.4 4.41 3.337 5.74 5.81 1.33 2.473 1.995 5.273 1.995 8.4 0 .933-.023 1.808-.07 2.625a30.39 30.39 0 01-.21 2.275h-24.731z"/>
    </g>
</svg>
