<svg width="184" height="209" xmlns="http://www.w3.org/2000/svg">
    <path d="M178.612 87.046c0 26.47-11.568 51.106-30.712 67.714 15.38 10.656 27.757 25.485 35.407 42.883 1.78 4.06.013 8.83-3.959 10.65a7.733 7.733 0 01-3.217.707c-3.005 0-5.876-1.766-7.192-4.756-7.304-16.62-19.715-30.473-35.136-39.542-2.192 1.237-4.418 2.416-6.737 3.468a7.678 7.678 0 01-3.183.698c-3.02 0-5.901-1.782-7.201-4.781-1.768-4.058.021-8.82 3.99-10.625a70.71 70.71 0 008.978-4.915c.11-.064.212-.143.327-.21 20.257-13.2 32.89-36.25 32.89-61.291 0-4.44 3.525-8.046 7.87-8.046 4.353 0 7.875 3.602 7.875 8.046zM4.384 204.156C.47 202.19-1.12 197.407.837 193.47c7.75-15.58 19.6-28.967 33.922-38.734C15.631 138.45 3.813 114.247 3.813 87.78 3.813 39.377 43.018 0 91.21 0l15.004.277c4.382.08 7.863 3.708 7.785 8.106-.085 4.348-3.61 7.815-7.92 7.815h-.157l-14.863-.274c-39.302.003-71.398 32.236-71.398 71.86 0 32.734 22.004 61.335 53.5 69.55 4.24 1.104 6.78 5.455 5.685 9.705a7.946 7.946 0 01-7.672 5.97c-.656 0-1.33-.081-2-.258a86.871 86.871 0 01-20.293-8.13c-14.445 8.37-26.401 20.971-33.866 35.975A7.927 7.927 0 017.918 205a7.853 7.853 0 01-3.534-.845zm60.713-91.759a8.02 8.02 0 01-1.362-11.311c2.747-3.485 7.82-4.117 11.324-1.392 1.619 1.226 15.963 11.366 32.127-.178 3.631-2.6 8.69-1.771 11.292 1.847a8.023 8.023 0 01-1.856 11.242c-8.65 6.184-17.408 8.395-25.318 8.395-11.456 0-21.142-4.646-26.207-8.603zM79 70.002C79 74.964 74.97 79 70.008 79 65.04 79 61 74.964 61 70.002 61 65.039 65.04 61 70.008 61 74.966 61 79 65.039 79 70.002zM114.005 61c4.96 0 8.995 4.039 8.995 9.002 0 4.962-4.035 8.998-8.995 8.998-4.967 0-9.005-4.036-9.005-8.998 0-4.963 4.038-9.002 9.005-9.002z"
          fill="#FFF" fill-rule="nonzero"/>
</svg>
